<svg width="52" height="52" viewBox="0 0 52 52" fill="none" xmlns="http://www.w3.org/2000/svg">
<rect x="0.5" y="0.5" width="51" height="51" rx="3.5" stroke="white"/>
<g clip-path="url(#clip0_1147_1993)">
<path d="M37 14H15C14.4477 14 14 14.4477 14 15V37C14 37.5523 14.4477 38 15 38H37C37.5523 38 38 37.5523 38 37V15C38 14.4477 37.5523 14 37 14Z" fill="white"/>
<path d="M37 14H15C14.4 14 14 14.4 14 15V37C14 37.6 14.4 38 15 38H37C37.6 38 38 37.6 38 37V15C38 14.4 37.6 14 37 14ZM21.1 34.5H17.6V23H21.2V34.5H21.1ZM19.3 21.4C18.2 21.4 17.2 20.5 17.2 19.3C17.2 18.2 18.1 17.2 19.3 17.2C20.4 17.2 21.4 18.1 21.4 19.3C21.4 20.5 20.5 21.4 19.3 21.4ZM34.5 34.5H30.9V28.9C30.9 27.6 30.9 25.9 29.1 25.9C27.2 25.9 27 27.3 27 28.8V34.5H23.4V23H26.8V24.6C27.3 23.7 28.4 22.8 30.2 22.8C33.8 22.8 34.5 25.2 34.5 28.3V34.5Z" fill="#00222C"/>
</g>
<defs>
<clipPath id="clip0_1147_1993">
<rect width="24" height="24" fill="white" transform="translate(14 14)"/>
</clipPath>
</defs>
</svg>
