<svg width="24" height="24" viewBox="0 0 24 24" fill="none" xmlns="http://www.w3.org/2000/svg">
<path d="M11.5 20.5C11.6138 20.5 11.7242 20.4612 11.813 20.39C12.107 20.153 19 14.559 19 10.5C19 8.51088 18.2098 6.60322 16.8033 5.1967C15.3968 3.79018 13.4891 3 11.5 3C9.51088 3 7.60322 3.79018 6.1967 5.1967C4.79018 6.60322 4 8.51088 4 10.5C4 14.559 10.893 20.153 11.187 20.39C11.2758 20.4612 11.3862 20.5 11.5 20.5ZM11.5 7.5C11.9945 7.5 12.4778 7.64662 12.8889 7.92133C13.3 8.19603 13.6205 8.58648 13.8097 9.04329C13.9989 9.50011 14.0484 10.0028 13.952 10.4877C13.8555 10.9727 13.6174 11.4181 13.2678 11.7678C12.9181 12.1174 12.4727 12.3555 11.9877 12.452C11.5028 12.5484 11.0001 12.4989 10.5433 12.3097C10.0865 12.1205 9.69603 11.8 9.42133 11.3889C9.14662 10.9778 9 10.4945 9 10C9 9.33696 9.26339 8.70107 9.73223 8.23223C10.2011 7.76339 10.837 7.5 11.5 7.5Z" fill="#6BD5D1"/>
</svg>
